<?xml version="1.0" encoding="utf-8"?>
<svg version="1.1" xmlns:xlink="http://www.w3.org/1999/xlink" width="35px" height="34px" xmlns="http://www.w3.org/2000/svg">
  <g transform="matrix(1 0 0 1 -1691 -318 )">
    <path d="M 5.085156194690265 21.78331557522124  C 3.2539286283185844 17.301733451327436  4.155062477876107 12.363549380530975  7.149710486725664 8.808777168141596  L 7.1207456761061945 10.795575893805312  L 11.238608109734516 10.879989228318586  L 11.39469891061947 2.0652906442477894  L 2.322392273451327 1.915224272566373  L 2.2371069061946907 5.915433493805311  L 4.240528277876106 5.942008047256638  C 0.09387075575221146 10.619276719823011  -1.196758890265487 17.255011587079647  1.2555198265486724 23.26046769327434  C 3.9396010654867264 29.835375657876114  10.41969062300885 33.97160503840708  17.45491982654867 33.97160503840708  C 18.642480357522125 33.97160503840708  19.84614801238938 33.85280049327434  21.04981566725663 33.610509332212395  L 20.208208145132744 29.693136748141594  C 13.844040446017699 30.98122644725664  7.482756375221237 27.656315898584072  5.08522540176991 21.78323834106195  Z M 33.74265442477876 10.737630265486725  C 30.60477247787611 3.0562329203539824  22.280643805309737 -1.29569185840708  13.951489380530976 0.3894534513274329  L 14.791490309734513 4.306826035398228  C 21.155658008849556 3.0187363362831845  27.51694207964602 6.34364688495575  29.914473053097346 12.21352302654867  C 31.747307212389384 16.698306566371677  30.844566769911506 21.64129276106194  27.846705575221243 25.195664796460175  L 27.87245225663717 23.191658460176985  L 23.7529832300885 23.11662527433628  L 23.612987194690273 31.929723150442477  L 32.68529383185841 32.06571929911504  L 32.7625338761062 28.0655100778761  L 30.77361303539823 28.0404990159292  C 34.90914799115044 23.366431759292027  36.19483427433628 16.738700431858398  33.742514362831855 10.737646272566366  Z " fill-rule="nonzero" fill="#797979" stroke="none" transform="matrix(1 0 0 1 1691 318 )" />
  </g>
</svg>