<?xml version="1.0" encoding="utf-8"?>
<svg version="1.1" xmlns:xlink="http://www.w3.org/1999/xlink" width="79px" height="156px" xmlns="http://www.w3.org/2000/svg">
  <g transform="matrix(1 0 0 1 -600 -1753 )">
    <path d="M 78.07662337662337 35.56944444444445  C 78.96580086580087 36.5324074074074  79.13679653679654 37.585648148148145  78.58961038961039 38.72916666666666  C 77.97402597402598 39.87268518518517  76.98225108225108 40.44444444444445  75.61428571428571 41  L 52 41  L 52 153.11111111111111  C 52.63246753246754 153.9537037037037  52.324675324675326 154.64583333333334  51.70909090909091 155.1875  C 51.093506493506496 155.72916666666666  50.30692640692641 156  49.349350649350654 156  L 29.650649350649353 156  C 28.693073593073596 156  27.906493506493508 155.72916666666666  27.290909090909093 155.1875  C 26.675324675324674 154.64583333333334  26.367532467532467 153.9537037037037  27 153.11111111111111  L 27 41  L 3.3857142857142857 41  C 1.9493506493506494 40.44444444444445  0.9575757575757575 39.87268518518517  0.4103896103896104 38.72916666666666  C -0.13679653679653686 37.585648148148145  0.034199134199134125 36.5324074074074  0.9233766233766234 35.56944444444445  L 36.83246753246753 0.9027777777777861  C 37.51645021645022 0.30092592592592293  38.30303030303031 0  39.19220779220779 0  C 40.14978354978355 0  40.97056277056277 0.30092592592592293  41.65454545454545 0.9027777777777861  L 78.07662337662337 35.56944444444445  Z " fill-rule="nonzero" fill="#333333" stroke="none" transform="matrix(1 0 0 1 600 1753 )" />
  </g>
</svg>